<svg width="499" height="305" viewBox="0 0 499 305" fill="none" xmlns="http://www.w3.org/2000/svg">
<path d="M412.4 0.731476C410.28 1.69148 409.4 3.29146 409.4 6.25146C409.4 8.57147 408.28 14.6515 407.4 17.0515C405.24 23.0515 401.24 27.2515 395.16 29.9715C393.72 30.6515 392.2 31.1715 391.84 31.1715C391.48 31.1715 390.8 31.4515 390.36 31.7715C389.96 32.0915 389.28 32.3715 388.88 32.3715C387.88 32.3715 383.32 34.6515 380.48 36.5315C378.24 38.0115 371.88 44.4915 370.88 46.2515C368.92 49.8115 367.44 52.9315 366.84 54.9715C366.44 56.2915 365.88 58.0915 365.56 58.9715C365.28 59.8515 364.92 62.1715 364.8 64.1715C364.44 68.9715 364 69.5715 361.16 69.5715C357.76 69.5715 355.84 71.3315 355.4 74.9715L355.2 76.5715L349.24 76.6915C345.2 76.7715 343.12 76.6515 342.76 76.3315C342.4 76.0115 342.2 75.0115 342.2 73.3315C342.2 71.0915 342.08 70.6115 341.04 69.4915L339.88 68.1715L255.32 68.0515C208.84 68.0115 170.4 68.0515 169.92 68.1715C169.44 68.2915 168.56 68.8515 168 69.4115L167 70.4115V141.131V211.851L167.88 212.651C168.4 213.131 169.52 213.691 170.4 213.931C172.92 214.651 335.44 214.371 337.56 213.611C341.04 212.451 343.92 208.331 347.64 199.171C349.52 194.571 353.68 189.451 356.8 187.891C360.12 186.211 360.28 186.171 366.76 186.171H373.2V204.971V223.771L265.32 223.891L157.4 223.971L157.2 223.091C157.08 222.571 157.04 186.451 157.08 142.771L157.2 63.3715L158.24 61.7715C159.6 59.7315 160.4 59.0515 162.52 58.2515C164.08 57.6115 171.72 57.5715 258.76 57.5715H353.28L354.92 56.1315C358.6 52.9315 357.52 46.8515 353 45.5715C351.32 45.0915 164.28 45.0515 160.56 45.5315C159.12 45.7315 156.88 46.3715 155.6 47.0115C153.12 48.2115 148.52 52.3315 147.8 54.0115C147.6 54.5315 147.24 55.2515 147.08 55.5715C146.04 57.4115 145.68 58.2515 145.28 60.1315C144.96 61.5715 144.8 86.6915 144.64 145.571L144.4 228.971L138.24 238.171C132.48 246.731 131.28 248.531 127.44 254.371C126.64 255.571 125.92 256.651 125.8 256.771C125.56 256.971 119.04 266.651 117.8 268.571C117.48 269.091 116.12 271.091 114.76 273.051C110.04 279.931 109.4 281.851 109.4 289.211C109.4 294.171 109.48 294.891 110.4 296.811C112.08 300.491 114.6 302.691 118.6 303.971C121.2 304.771 121.8 304.771 265.2 304.771C409.04 304.771 409.24 304.771 411.56 303.971C418.36 301.571 421 297.451 421 289.171C421 285.491 420.56 282.931 419.52 280.291C418.84 278.731 418.96 278.851 407.2 261.411C402.8 254.851 399 249.211 398.8 248.851C398.56 248.491 396.56 245.411 394.28 242.051C392.04 238.651 390.2 235.811 390.2 235.691C390.2 235.571 389.68 234.811 389 233.971C388.36 233.131 387.8 232.371 387.8 232.251C387.8 232.131 387.28 231.211 386.6 230.251L385.4 228.451V215.851C385.4 208.851 385.56 203.131 385.76 203.011C385.96 202.891 387.16 203.251 388.44 203.851C389.76 204.411 390.5 204.971 392.5 206C393.689 206.295 393.5 206.5 396 207C397.114 207.223 398.7 207.705 401 207.5C402.5 207.192 403.5 207 406 206C410.2 204.32 410.36 203.691 413.72 202.211C417.52 200.571 417.4 200.531 421 203.531C426.6 208.211 431.68 213.931 437.2 221.811C448.52 238.011 453.32 242.811 461.6 246.411C472.84 251.251 484.84 246.651 492.52 234.571C492.76 234.131 493.2 233.371 493.4 232.851C493.6 232.331 494.24 231.011 494.76 229.851C495.76 227.691 496.48 225.171 497.56 219.971C498.36 216.291 498.48 199.131 497.76 197.291C497.52 196.691 497.16 194.811 496.96 193.171C496.76 191.531 496.24 188.371 495.8 186.171C495.36 183.971 494.8 181.211 494.56 180.011C494.36 178.811 494.08 177.691 493.96 177.491C493.84 177.291 493.56 176.171 493.4 175.051C492.88 172.011 491.64 166.571 490.36 162.131C490.04 161.011 489.8 159.771 489.8 159.371C489.8 158.651 488.92 155.251 488.12 152.971C487.92 152.291 487.56 151.051 487.4 150.171C487 147.971 486.2 144.811 485.76 143.371C485.08 141.371 484.16 138.251 483.84 136.771C482.88 132.851 482.08 130.131 481.76 129.771C481.56 129.571 481.4 128.971 481.4 128.371C481.4 127.811 481.12 126.851 480.8 126.211C480.48 125.611 480.2 124.731 480.2 124.291C480.2 123.851 479.96 122.931 479.64 122.251C479.32 121.531 479 120.611 478.88 120.171C478.76 119.731 478.28 118.371 477.8 117.171C477.32 115.971 476.8 114.411 476.6 113.771C476.12 111.931 473.84 106.811 472.68 105.011C470.72 101.891 467.08 97.3715 464.92 95.3715C457.6 88.6115 448.16 83.6115 438 81.0515C433.44 79.8915 431.8 79.5715 429.52 79.3315C428.24 79.2115 426.68 78.9315 426 78.7315C424 78.1315 407.08 77.0515 396 76.8115L385.6 76.5715L385.4 74.2115C385.2 72.1315 385 71.7315 383.8 70.7315C382.72 69.8115 382.04 69.5715 380.56 69.5715C377.92 69.5715 377.64 69.0515 377.92 65.2115C378.4 58.8915 380.84 54.0115 385.72 49.5315C388.68 46.8115 390.24 46.0115 399.32 42.6115C401.84 41.6515 401.96 41.5715 403.2 40.7715C403.88 40.3315 404.68 39.8515 405 39.6915C408.76 38.0115 414.92 30.7715 417 25.5715C417.48 24.3715 418.04 22.9315 418.28 22.3715C419.76 18.7715 420.48 15.1315 420.84 9.33145C421.16 5.05145 420.48 3.01146 418.2 1.25146C416.28 -0.228535 414.8 -0.388524 412.4 0.731476ZM329.4 100.371C330.16 100.651 331.52 101.131 332.4 101.491C336.04 102.811 337.28 103.371 338.92 104.451C339.88 105.051 340.72 105.571 340.84 105.571C341.36 105.571 347.36 110.451 348.6 111.851C351.12 114.771 352.8 116.851 353.12 117.531C353.28 117.891 353.76 118.691 354.16 119.371C355.48 121.411 356.52 123.771 358.2 128.371C359.12 130.931 359.56 134.531 359.56 139.771C359.6 146.811 358.68 151.051 355.76 157.091C353.48 161.731 352.52 163.171 348.6 167.291C344.96 171.131 339.68 174.491 334.8 175.971C333.92 176.251 332.56 176.691 331.8 176.971C329.2 177.891 323.52 178.771 320.2 178.771C316.96 178.771 311.12 177.931 308.8 177.131C308.16 176.891 306.96 176.571 306.2 176.411C302.28 175.571 296 171.811 291.76 167.691C283.6 159.851 280.04 151.051 280 138.771C280 131.171 280.96 126.891 284.04 120.611C286.6 115.571 289.76 111.731 295.04 107.451C296.24 106.411 301.64 103.331 303.4 102.611C304.4 102.211 305.64 101.691 306.2 101.491C309.68 100.051 313.24 99.6115 320.6 99.7315C325.4 99.8115 328.48 100.011 329.4 100.371ZM433 100.691C434.24 101.291 435.68 102.611 437.24 104.491C437.52 104.811 437.84 105.611 438 106.291C438.12 107.011 438.44 107.651 438.64 107.771C439.2 108.131 439.08 111.331 438.4 113.011C436.88 116.851 436.04 117.851 432.88 119.531C428.88 121.691 424.6 121.051 421.16 117.731C418.4 115.051 418.04 114.211 418.04 110.171C418.04 106.971 418.16 106.411 419.08 104.971C421.8 100.731 424.52 99.4115 429.6 99.8115C430.72 99.9315 432.24 100.291 433 100.691ZM205.72 101.131C206.04 101.291 206.48 101.851 206.72 102.291C207 102.771 207.6 103.851 208.08 104.731C208.56 105.611 209.48 107.131 210.08 108.051C210.68 109.011 211.56 110.491 212.04 111.371C212.48 112.251 213.28 113.611 213.72 114.371C214.2 115.131 214.76 116.131 214.96 116.571C215.16 117.011 215.8 118.051 216.36 118.891C216.92 119.731 217.4 120.491 217.4 120.571C217.4 120.771 221.84 128.411 222.6 129.571C222.84 129.891 223.2 130.531 223.4 130.971C223.64 131.411 224.44 132.851 225.2 134.171C226 135.491 226.8 136.971 227.08 137.451C227.32 137.971 227.8 138.371 228.16 138.371C228.72 138.371 231.64 133.771 236.32 125.411C236.96 124.291 238.6 121.491 239.96 119.171C241.36 116.851 242.96 114.051 243.56 112.971C245.96 108.691 250.4 101.371 250.8 101.091C251 100.931 254.76 100.771 259.08 100.771C266.48 100.771 267 100.811 267.4 101.531C267.68 102.091 267.76 114.451 267.72 139.851L267.6 177.371L259.32 177.491L251 177.571V154.211C251 131.611 250.84 128.651 249.84 131.251C249.64 131.771 249.04 132.811 248.52 133.571C248 134.331 247.44 135.251 247.28 135.571C247.12 135.891 246.68 136.651 246.28 137.211C245.92 137.811 244.84 139.491 243.88 141.011C238.2 150.051 235.56 154.251 233.16 158.171C228.64 165.531 227.96 166.171 226.92 164.171C226.08 162.571 221.76 155.531 220.2 153.171C219.4 151.971 218.6 150.691 218.48 150.371C218.32 150.051 217.88 149.291 217.48 148.691C217.12 148.091 216 146.291 215.04 144.691C214.04 143.091 212.32 140.331 211.16 138.531C210 136.731 208.64 134.531 208.2 133.611C207.72 132.731 207.2 131.971 207.04 131.971C206.84 131.971 206.52 131.571 206.28 131.051C205.72 129.931 205.8 127.651 205.68 154.371L205.6 177.371H197.6H189.6L189.48 139.611C189.44 112.051 189.52 101.731 189.84 101.331C190.2 100.891 191.96 100.771 197.76 100.771C201.84 100.771 205.44 100.931 205.72 101.131ZM453.76 121.851C455.28 122.331 456.32 123.051 457.8 124.651C458.92 125.851 459.8 127.051 459.8 127.331C459.8 127.651 460.08 128.411 460.4 129.011C462.24 132.451 458.24 140.451 454.24 141.451C453.68 141.571 452.8 141.931 452.24 142.211C450.92 142.931 448.8 142.931 447.48 142.251C446.88 141.931 445.72 141.371 444.84 140.931C443.36 140.211 441.2 137.931 440.2 136.051C439.48 134.651 439.56 129.051 440.32 127.491C440.68 126.771 441.64 125.411 442.48 124.531C445.36 121.411 449.44 120.451 453.76 121.851ZM410.4 121.931C410.52 122.131 411.12 122.411 411.72 122.571C413.04 122.851 415.8 125.531 416.84 127.571C417.36 128.571 417.56 129.851 417.56 131.971C417.56 136.571 415.84 139.491 411.8 141.731C409.88 142.811 404.28 142.891 403.24 141.851C402.84 141.491 402.36 141.171 402.16 141.171C401.56 141.171 399.76 139.451 398.84 137.971C397.28 135.491 396.84 133.171 397.4 130.211C397.68 128.771 398.12 127.371 398.44 127.131C398.76 126.891 399 126.491 399 126.251C399 125.531 402.28 122.811 403.48 122.571C404.08 122.411 404.68 122.131 404.8 121.931C404.96 121.731 406.2 121.571 407.6 121.571C409 121.571 410.24 121.731 410.4 121.931ZM431.64 142.571C432.04 142.891 432.68 143.171 433.04 143.171C433.88 143.171 437.8 146.891 437.8 147.691C437.8 148.011 438.08 148.811 438.4 149.411C439.84 152.171 438.64 156.971 435.92 159.651C433.24 162.291 427.92 163.651 425.96 162.171C425.56 161.851 424.84 161.571 424.36 161.571C423.52 161.571 420.6 158.971 420.6 158.251C420.6 158.011 420.28 157.491 419.92 157.051C419.32 156.411 419.24 155.611 419.28 152.451C419.36 149.731 419.56 148.451 420 147.971C420.32 147.611 420.6 147.171 420.6 147.011C420.6 146.091 422.8 144.051 424.6 143.371C424.92 143.251 425.64 142.891 426.2 142.571C427.56 141.851 430.68 141.851 431.64 142.571ZM410.6 173.971C410.6 174.611 410.44 175.171 410.2 175.171C410 175.171 411.5 174.611 411.5 173.971C411.5 173.291 410 172.771 410.2 172.771C410.5 173 410.6 173.291 410.6 173.971ZM410.6 177.371C410.6 178.131 410.44 178.771 410.2 178.771C409.76 178.771 410.56 179.9 411 179.5C411.44 179.02 410.6 175.931 410.6 177.371ZM400.319 191.571C399.935 191.571 399.84 191.571 399 191.571C398.16 191.571 398.177 191.571 397.74 191.571C397.58 191.331 397.72 191.571 399 191.571C400.28 191.571 399.589 191.571 400.319 191.571ZM376.88 237.931C378.12 239.531 381.56 244.651 385.4 250.571C385.72 251.091 386.72 252.571 387.56 253.851C388.44 255.131 390.16 257.691 391.4 259.571C392.64 261.451 395.16 265.171 397.04 267.891C398.88 270.571 400.6 273.091 400.8 273.491C401.04 273.851 402.76 276.531 404.72 279.411C406.64 282.251 408.2 285.011 408.2 285.531C408.2 286.051 407.6 287.051 406.84 287.811L405.48 289.171H265.4C125.64 289.171 125.28 289.171 124 288.371C121.56 286.851 121.92 283.691 124.96 279.611C125.52 278.851 126.56 277.371 127.2 276.331C127.88 275.251 130.04 272.011 132 269.091C134 266.171 135.8 263.451 136 263.091C136.24 262.731 137.36 261.051 138.52 259.371C139.64 257.731 140.6 256.171 140.6 256.011C140.6 255.811 140.76 255.571 140.92 255.491C141.2 255.411 146.84 247.211 149 243.771C151.44 239.931 154.08 236.371 154.6 236.211C154.92 236.131 204.76 236.051 265.28 236.011L375.4 235.971L376.88 237.931Z" fill="black"/>
<path d="M312.6 115.851C309.4 117.251 308.32 117.851 306.12 119.451C302.52 122.091 298.88 127.651 297.32 132.771C296.6 135.171 296.6 145.731 297.32 146.451C297.56 146.691 297.8 147.331 297.8 147.811C297.8 149.331 301 154.371 303.44 156.651C308.48 161.451 312.76 163.171 319.84 163.171C325.08 163.171 327.4 162.611 331.04 160.491C338.76 156.011 342.76 148.811 342.76 139.371C342.76 135.451 342.48 133.411 341.52 130.971C338.68 123.451 333.84 118.651 326.28 115.811C323.92 114.931 314.6 114.931 312.6 115.851Z" fill="black"/>
<path d="M168.48 246.972C167.16 247.332 164.6 249.332 164.6 250.012C164.6 250.412 159.68 258.532 157.6 261.532C155.56 264.452 155.32 265.852 156.72 266.172C157.2 266.292 206.4 266.332 266 266.292L374.4 266.172L374.52 265.252C374.6 264.692 373.96 263.372 372.76 261.652C369.4 256.932 367.56 254.172 367.28 253.572C367.12 253.252 366.64 252.412 366.2 251.772C365.76 251.092 365.24 250.212 365.04 249.772C364.52 248.612 362.52 247.252 360.96 246.972C358.52 246.572 170.04 246.532 168.48 246.972Z" fill="black"/>
<path d="M236.76 274.732C234.84 275.892 234.2 277.092 234.2 279.372C234.2 281.132 234.4 281.612 235.44 282.692C236.16 283.412 237.08 284.052 237.56 284.172C238 284.252 239.2 284.452 240.2 284.652C242.68 285.052 288.28 285.052 291 284.612C292.2 284.412 293.68 284.012 294.24 283.652C297.6 281.732 297.32 276.572 293.72 274.732C292.28 274.012 291 273.972 265.12 273.972C239.12 273.972 237.96 274.012 236.76 274.732Z" fill="black"/>
<path d="M415.6 68.7313C413.36 69.3713 412.32 69.8913 411.08 71.1713C409.6 72.6513 409.52 73.1313 410.56 74.4113C411.24 75.2513 411.76 75.4113 415.28 75.6113C424.72 76.1713 432.44 77.2513 437.4 78.6513C441.2 79.6913 446.72 81.6513 448.76 82.6113C449.88 83.1313 451.24 83.5713 451.8 83.5713C453.4 83.5713 454.6 82.0513 454.6 80.0513C454.6 78.6513 454.36 78.0913 453.04 76.6513C450.68 74.1313 445.52 71.7313 440.32 70.7713C438.04 70.3313 435.08 69.6913 432.6 69.0913C430.4 68.5313 417.28 68.2913 415.6 68.7313Z" fill="black"/>
<circle cx="399.5" cy="183.5" r="12" fill="black" stroke="#08C58B" stroke-width="3"/>
<circle cx="428" cy="110" r="11" fill="#00BFDA"/>
<circle cx="428" cy="152" r="11" fill="#FF534B"/>
<circle cx="408" cy="132" r="11" fill="#01BCD9"/>
<circle cx="450" cy="132" r="11" fill="#FFC102"/>
<path d="M59.3249 130.466L46.6193 117.736C46.424 117.54 46.1069 117.54 45.9115 117.736L1.35252 162.382C1.15772 162.578 1.15771 162.894 1.35251 163.089L39.2055 201.016C39.4009 201.212 39.718 201.212 39.9133 201.016L52.6189 188.286C52.8137 188.09 52.8137 187.774 52.6189 187.579L28.1765 163.089C27.9817 162.894 27.9817 162.578 28.1765 162.382L59.3249 131.173C59.5197 130.978 59.5197 130.662 59.3249 130.466Z" fill="#FE8A13" stroke="#D78324" stroke-width="2"/>
<path d="M107.656 111.525L93.1975 103.313C92.9164 103.153 92.56 103.298 92.4703 103.609L58.633 220.654C58.5704 220.871 58.6606 221.103 58.8532 221.22L72.9264 229.795C73.2075 229.966 73.5745 229.824 73.6666 229.508L107.889 112.099C107.954 111.877 107.858 111.639 107.656 111.525Z" fill="#FE8A13" stroke="#D78324" stroke-width="2"/>
</svg>
